<?xml version="1.0" standalone="no"?>
<!DOCTYPE svg PUBLIC "-//W3C//DTD SVG 20010904//EN"
 "http://www.w3.org/TR/2001/REC-SVG-20010904/DTD/svg10.dtd">
<svg version="1.0" xmlns="http://www.w3.org/2000/svg"
 width="48.000000pt" height="48.000000pt" viewBox="0 0 48.000000 48.000000"
 preserveAspectRatio="xMidYMid meet">

<g transform="translate(0.000000,48.000000) scale(0.100000,-0.100000)"
fill="#000000" stroke="none">
<path d="M180 421 c-13 -26 -13 -286 0 -312 15 -28 105 -28 120 0 5 11 10 81
10 156 0 75 -5 145 -10 156 -8 15 -21 19 -60 19 -39 0 -52 -4 -60 -19z"/>
<path d="M330 341 c-5 -11 -10 -63 -10 -116 0 -123 6 -135 70 -135 64 0 70 12
70 135 0 123 -6 135 -70 135 -39 0 -52 -4 -60 -19z"/>
<path d="M30 241 c-13 -25 -13 -107 0 -132 15 -28 105 -28 120 0 13 25 13 107
0 132 -15 28 -105 28 -120 0z"/>
<path d="M30 55 c0 -13 30 -15 210 -15 180 0 210 2 210 15 0 13 -30 15 -210
15 -180 0 -210 -2 -210 -15z"/>
</g>
</svg>
