<?xml version="1.0" standalone="no"?>
<!DOCTYPE svg PUBLIC "-//W3C//DTD SVG 20010904//EN"
 "http://www.w3.org/TR/2001/REC-SVG-20010904/DTD/svg10.dtd">
<svg version="1.0" xmlns="http://www.w3.org/2000/svg"
 width="66.000000pt" height="66.000000pt" viewBox="0 0 66.000000 66.000000"
 preserveAspectRatio="xMidYMid meet">

<g transform="translate(0.000000,66.000000) scale(0.100000,-0.100000)"
fill="#000000" stroke="none">
<path d="M275 641 c-51 -13 -91 -39 -129 -83 -80 -93 -74 -201 21 -353 106
-170 141 -204 186 -184 30 14 160 206 192 284 44 106 30 189 -43 265 -64 65
-145 91 -227 71z m160 -121 c55 -53 69 -132 32 -190 -10 -17 -12 -17 -41 4
-17 13 -39 26 -49 29 -16 6 -16 8 3 27 41 41 11 110 -50 110 -61 0 -90 -65
-49 -108 19 -21 19 -23 2 -29 -10 -3 -32 -16 -49 -29 l-31 -23 -14 26 c-8 14
-14 48 -14 74 0 54 21 90 76 127 28 20 44 23 92 20 49 -4 62 -9 92 -38z"/>
</g>
</svg>
