<?xml version="1.0" standalone="no"?>
<!DOCTYPE svg PUBLIC "-//W3C//DTD SVG 20010904//EN"
 "http://www.w3.org/TR/2001/REC-SVG-20010904/DTD/svg10.dtd">
<svg version="1.0" xmlns="http://www.w3.org/2000/svg"
 width="128.000000pt" height="128.000000pt" viewBox="0 0 128.000000 128.000000"
 preserveAspectRatio="xMidYMid meet">

<g transform="translate(0.000000,128.000000) scale(0.100000,-0.100000)"
fill="#000000" stroke="none">
<path d="M73 1059 c-10 -10 -13 -100 -13 -379 0 -409 1 -414 71 -452 31 -17
66 -18 464 -18 398 0 433 1 465 18 19 10 42 34 52 53 17 36 88 526 88 610 0
32 -7 55 -22 74 -41 53 -59 55 -413 55 -322 0 -326 0 -356 23 -28 20 -44 22
-177 25 -109 2 -150 0 -159 -9z m346 -113 c63 -83 74 -86 306 -86 182 0 196
-1 215 -20 19 -19 20 -33 20 -214 0 -160 3 -196 15 -206 12 -10 18 -10 30 0
12 10 15 46 15 204 0 294 -2 296 -301 296 -181 0 -199 2 -220 20 -24 19 -24
19 284 20 192 0 316 -4 327 -10 42 -23 42 -37 1 -337 -22 -159 -43 -296 -47
-306 -3 -10 -15 -22 -25 -27 -10 -6 -189 -10 -448 -10 -418 0 -432 1 -451 20
-19 19 -20 33 -20 370 l0 351 127 -3 127 -3 45 -59z"/>
</g>
</svg>
